<svg width="113" height="26" viewBox="0 0 113 26" fill="none" xmlns="http://www.w3.org/2000/svg">
<g clip-path="url(#clip0_0_1240)">
<g clip-path="url(#clip1_0_1240)">
<mask id="mask0_0_1240" style="mask-type:luminance" maskUnits="userSpaceOnUse" x="0" y="0" width="113" height="25">
<path d="M113 0.49884H0V24.8853H113V0.49884Z" fill="white"/>
</mask>
<g mask="url(#mask0_0_1240)">
<path d="M28.5779 17.8371C28.5779 18.37 28.6198 18.8547 28.7052 19.2906C28.7895 19.7275 28.9497 20.095 29.183 20.3925C29.4168 20.691 29.7292 20.9254 30.1231 21.0956C30.5161 21.2669 31.0097 21.3512 31.6047 21.3512C32.3057 21.3512 32.9378 21.1221 33.5009 20.664C34.063 20.2058 34.3451 19.4979 34.3451 18.5397C34.3451 18.0291 34.2757 17.5868 34.1378 17.214C33.9999 16.8413 33.7714 16.5056 33.4527 16.2081C33.1335 15.9107 32.7146 15.6381 32.1944 15.3931C31.6731 15.1481 31.031 14.8984 30.2668 14.6428C29.2477 14.3018 28.3653 13.9296 27.6219 13.525C26.8784 13.1209 26.2564 12.6469 25.7585 12.1033C25.2595 11.5598 24.8931 10.933 24.6593 10.2182C24.4254 9.50502 24.3088 8.68045 24.3088 7.74241C24.3088 5.48612 24.935 3.80358 26.1891 2.69532C27.4421 1.58813 29.1634 1.034 31.3512 1.034C32.3704 1.034 33.3106 1.14588 34.1707 1.36966C35.0308 1.59343 35.7742 1.9556 36.4015 2.45564C37.0278 2.95569 37.5167 3.59572 37.8672 4.37203C38.2177 5.14993 38.3927 6.08055 38.3927 7.16654V7.80498H33.9952C33.9952 6.71899 33.8037 5.88329 33.4214 5.29735C33.0391 4.7114 32.4022 4.41922 31.5093 4.41922C30.9997 4.41922 30.5744 4.49399 30.2345 4.643C29.8946 4.792 29.6236 4.98926 29.4216 5.23425C29.2196 5.47923 29.0817 5.7608 29.008 6.08055C28.9332 6.4003 28.8966 6.73066 28.8966 7.07056C28.8966 7.7737 29.0451 8.36441 29.3431 8.84378C29.6401 9.32314 30.278 9.76538 31.2553 10.1694L34.7916 11.703C35.6623 12.0864 36.3739 12.4862 36.927 12.9009C37.4785 13.3155 37.9197 13.7631 38.2495 14.2424C38.5788 14.7218 38.8073 15.2483 38.9351 15.8237C39.0624 16.399 39.1266 17.0375 39.1266 17.7401C39.1266 20.1464 38.4308 21.8984 37.0399 22.994C35.648 24.0906 33.7099 24.6394 31.225 24.6394C28.7402 24.6394 26.7798 24.0757 25.6652 22.9468C24.55 21.8184 23.9922 20.1995 23.9922 18.0922V17.1658H28.5806V17.8371L28.5795 17.8382L28.5779 17.8371Z" fill="white"/>
<path d="M45.7198 17.3912C45.7198 17.9665 45.7569 18.4931 45.8312 18.9719C45.9049 19.4512 46.0427 19.8659 46.2448 20.2175C46.4468 20.569 46.7231 20.8453 47.0736 21.0479C47.4241 21.2504 47.8642 21.3517 48.3961 21.3517C48.9279 21.3517 49.394 21.2504 49.7344 21.0479C50.0744 20.8453 50.3453 20.5685 50.5474 20.2175C50.7494 19.8659 50.8873 19.4512 50.961 18.9719C51.0347 18.4925 51.0723 17.966 51.0723 17.3912V1.48419H55.6607V17.3912C55.6607 18.8393 55.4587 20.0372 55.0552 20.9848C54.6522 21.9324 54.1097 22.6827 53.4309 23.2368C52.7506 23.791 51.9759 24.1637 51.1052 24.3546C50.2334 24.5466 49.3309 24.6415 48.3971 24.6415C47.4633 24.6415 46.5597 24.5561 45.688 24.3859C44.8162 24.2162 44.0415 23.87 43.3622 23.3476C42.6819 22.8264 42.141 22.0867 41.7364 21.1279C41.3334 20.1698 41.1309 18.9242 41.1309 17.3906V1.48419H45.7193V17.3912H45.7198Z" fill="white"/>
<path d="M66.2408 1.48419C67.1756 1.48419 68.041 1.58017 68.838 1.77107C69.635 1.96302 70.3196 2.28171 70.8933 2.72926C71.4671 3.17681 71.9125 3.77283 72.2317 4.51838C72.5504 5.26341 72.7095 6.17971 72.7095 7.2657C72.7095 8.50069 72.4232 9.56017 71.8494 10.4436C71.2757 11.327 70.4156 11.9283 69.2686 12.2481V12.3123C70.5439 12.483 71.5525 13.0255 72.2959 13.9407C73.0393 14.8565 73.4105 16.0809 73.4105 17.6133C73.4105 18.5074 73.2939 19.36 73.06 20.1682C72.8262 20.9779 72.4274 21.6858 71.8653 22.2929C71.3016 22.8996 70.5693 23.3842 69.6668 23.7464C68.7633 24.1086 67.6433 24.2899 66.3049 24.2899H58.5625V1.48419H66.2418H66.2408ZM64.4564 10.8424C65.7312 10.8424 66.6597 10.6133 67.244 10.1551C67.8284 9.69697 68.12 8.92544 68.12 7.83945C68.12 6.75346 67.8538 5.98722 67.323 5.53968C66.7917 5.09213 65.9534 4.86836 64.8059 4.86836H63.1488V10.8408H64.4554L64.4564 10.8418V10.8424ZM64.9342 20.9031C66.0387 20.9031 66.9307 20.6581 67.6105 20.1687C68.2897 19.6793 68.6296 18.7746 68.6296 17.4532C68.6296 16.7935 68.5395 16.2447 68.3592 15.8078C68.1778 15.3719 67.9339 15.0203 67.6264 14.7536C67.3177 14.4874 66.9513 14.3018 66.5271 14.1942C66.1018 14.0876 65.6352 14.0346 65.1251 14.0346H63.1498V20.9021H64.9342V20.9031Z" fill="white"/>
<path d="M83.9556 1.48419C84.8905 1.48419 85.7559 1.58017 86.5529 1.77107C87.3499 1.96302 88.0344 2.28171 88.6082 2.72926C89.1819 3.17681 89.6274 3.77283 89.946 4.51838C90.2653 5.26341 90.4244 6.17971 90.4244 7.2657C90.4244 8.50069 90.138 9.56017 89.5643 10.4436C88.9905 11.327 88.1299 11.9283 86.9834 12.2481V12.3123C88.2587 12.483 89.2673 13.0255 90.0107 13.9407C90.7536 14.8565 91.1254 16.0809 91.1254 17.6133C91.1254 18.5074 91.0087 19.36 90.7749 20.1682C90.541 20.9779 90.1422 21.6858 89.5796 22.2929C89.0165 22.8996 88.2837 23.3842 87.3817 23.7464C86.4781 24.1086 85.3582 24.2899 84.0198 24.2899H76.2773V1.48419H83.9567H83.9556ZM82.1707 10.8424C83.446 10.8424 84.3745 10.6133 84.9589 10.1551C85.5432 9.69697 85.8349 8.92544 85.8349 7.83945C85.8349 6.75346 85.5687 5.98722 85.0379 5.53968C84.506 5.09213 83.6682 4.86836 82.5207 4.86836H80.8636V10.8408H82.1702V10.8418L82.1707 10.8424ZM82.649 20.9031C83.7536 20.9031 84.645 20.6581 85.3253 20.1687C86.0046 19.6793 86.3445 18.7746 86.3445 17.4532C86.3445 16.7935 86.2538 16.2447 86.074 15.8078C85.8927 15.3719 85.6488 15.0203 85.3412 14.7536C85.0326 14.4874 84.6662 14.3018 84.242 14.1942C83.8167 14.0876 83.3501 14.0346 82.8394 14.0346H80.8642V20.9021H82.649V20.9031Z" fill="white"/>
<path d="M101.098 1.48419C102.691 1.48419 103.976 1.74508 104.953 2.26634C105.93 2.78865 106.69 3.53368 107.231 4.50247C107.774 5.47127 108.14 6.63733 108.331 8.00012C108.523 9.36238 108.617 10.8853 108.617 12.5678C108.617 14.5701 108.495 16.3105 108.251 17.7899C108.007 19.2704 107.586 20.4884 106.993 21.4466C106.398 22.4048 105.601 23.1186 104.603 23.5868C103.603 24.0556 102.34 24.2899 100.812 24.2899H93.5781V1.48419H101.098ZM100.206 20.9042C101.014 20.9042 101.661 20.7658 102.149 20.4895C102.638 20.2132 103.025 19.7551 103.313 19.1166C103.599 18.4782 103.791 17.6372 103.887 16.5931C103.983 15.5506 104.03 14.2514 104.03 12.6967C104.03 11.3986 103.987 10.2591 103.902 9.27966C103.817 8.30025 103.643 7.48523 103.377 6.83618C103.112 6.18713 102.718 5.69717 102.198 5.36681C101.677 5.03645 100.982 4.87207 100.111 4.87207H98.1676V20.9042H100.207H100.206Z" fill="white"/>
<path d="M110.914 24.2987C112.065 24.2987 112.999 23.3628 112.999 22.2078C112.999 21.0529 112.065 20.117 110.914 20.117C109.762 20.117 108.828 21.0529 108.828 22.2078C108.828 23.3628 109.762 24.2987 110.914 24.2987Z" fill="url(#paint0_linear_0_1240)"/>
<path d="M19.9752 3.78981C19.9752 2.74731 18.8256 2.09349 17.9268 2.6158L14.9652 4.33387L11.0073 0.885008C10.4155 0.370118 9.53633 0.370118 8.94455 0.885008L4.98823 4.33387L2.02562 2.61686C1.12629 2.09455 0 2.74572 0 3.78769V12.4008C0 12.4767 0.00212107 12.5541 0.00212107 12.6294V12.825C0.00212107 14.3066 0.582234 15.6948 1.62898 16.7437L9.58299 24.7173C9.69329 24.8282 9.84123 24.887 9.98494 24.887C10.1286 24.887 10.2776 24.8319 10.3874 24.7216L18.3584 16.7607C19.4051 15.7118 19.9736 14.3183 19.9736 12.8362C19.9736 12.7646 19.9752 12.4586 19.9752 12.3637M16.2066 15.7283L10.2867 21.6407C10.2045 21.7229 10.0952 21.7643 9.98759 21.7643C9.87994 21.7643 9.77071 21.7197 9.68852 21.6376L3.78081 15.7161C3.00397 14.9371 2.57339 13.9063 2.57339 12.8054C2.57021 11.7046 2.9976 10.6706 3.77444 9.8916C4.5481 9.11582 5.58 8.68736 6.67501 8.68736C7.77001 8.68736 8.80827 9.119 9.58512 9.89796L9.9966 10.3105L10.4023 9.90433C11.1791 9.12536 12.211 8.69691 13.3092 8.69691C14.4074 8.69691 15.4361 9.12218 16.2129 9.90115C16.9898 10.6801 17.414 11.7141 17.4113 12.815C17.4113 13.9158 16.9839 14.9498 16.2071 15.7288L16.2066 15.7283Z" fill="url(#paint1_linear_0_1240)"/>
</g>
</g>
</g>
<defs>
<linearGradient id="paint0_linear_0_1240" x1="110.914" y1="20.117" x2="110.914" y2="24.2987" gradientUnits="userSpaceOnUse">
<stop stop-color="#E11F28"/>
<stop offset="1" stop-color="#FE3642"/>
</linearGradient>
<linearGradient id="paint1_linear_0_1240" x1="9.98759" y1="0.498973" x2="9.98759" y2="24.8865" gradientUnits="userSpaceOnUse">
<stop stop-color="#E11F28"/>
<stop offset="1" stop-color="#FE3642"/>
</linearGradient>
<clipPath id="clip0_0_1240">
<rect width="113" height="25" fill="white" transform="translate(0 0.5)"/>
</clipPath>
<clipPath id="clip1_0_1240">
<rect width="113" height="24.3881" fill="white" transform="translate(0 0.5)"/>
</clipPath>
</defs>
</svg>
